<?xml version="1.0" encoding="UTF-8" standalone="no"?>
<svg width="31px" height="32px" viewBox="0 0 31 32" version="1.1" xmlns="http://www.w3.org/2000/svg" xmlns:xlink="http://www.w3.org/1999/xlink">
    <defs></defs>
    <g id="Page-9" stroke="none" stroke-width="1" fill="none" fill-rule="evenodd">
        <g id="Desktop-Landscape" transform="translate(-166.000000, -48.000000)">
            <g id="About" transform="translate(166.000000, 48.000000)">
                <path d="M16,18 L16,18 C20.418278,18 24,14.418278 24,10 C24,5.581722 20.418278,2 16,2 C11.581722,2 8,5.581722 8,10 C8,14.418278 11.581722,18 16,18 L16,18 L16,18 Z M16,20 L16,20 C10.4771525,20 6,15.5228475 6,10 C6,4.4771525 10.4771525,0 16,0 C21.5228475,0 26,4.4771525 26,10 C26,15.5228475 21.5228475,20 16,20 L16,20 L16,20 Z" id="Shape" fill="#545454"></path>
                <path d="M15,10.0042651 C15,9.4496248 15.4438648,9 16,9 C16.5522847,9 17,9.45097518 17,10.0042651 L17,13.9957349 C17,14.5503752 16.5561352,15 16,15 C15.4477153,15 15,14.5490248 15,13.9957349 L15,10.0042651 L15,10.0042651 Z M15,7 C15,6.44771525 15.4438648,6 16,6 C16.5522847,6 17,6.44386482 17,7 C17,7.55228475 16.5561352,8 16,8 C15.4477153,8 15,7.55613518 15,7 L15,7 L15,7 Z" id="Rectangle-2" fill="#E2E2E2"></path>
                <path d="M5.5078125,28.609375 L1.63476562,28.609375 L0.755859375,31 L0,31 L3.22851562,22.46875 L3.9140625,22.46875 L7.14257812,31 L6.39257812,31 L5.5078125,28.609375 L5.5078125,28.609375 Z M1.85742188,27.9941406 L5.27929688,27.9941406 L3.56835938,23.3476562 L1.85742188,27.9941406 L1.85742188,27.9941406 Z M13.3359375,27.8945312 C13.3359375,28.3710961 13.2822271,28.8066387 13.1748047,29.2011719 C13.0673823,29.5957051 12.9101573,29.9345689 12.703125,30.2177734 C12.4960927,30.500978 12.242189,30.7216789 11.9414062,30.8798828 C11.6406235,31.0380867 11.29883,31.1171875 10.9160156,31.1171875 C10.4511696,31.1171875 10.0537126,31.0292978 9.72363281,30.8535156 C9.39355304,30.6777335 9.12304793,30.4375015 8.91210938,30.1328125 L8.8828125,31 L8.2265625,31 L8.2265625,22 L8.92382812,22 L8.92382812,25.5800781 C9.13476668,25.2519515 9.40234213,24.9970712 9.7265625,24.8154297 C10.0507829,24.6337882 10.4433571,24.5429688 10.9042969,24.5429688 C11.2910176,24.5429688 11.6347641,24.6191399 11.9355469,24.7714844 C12.2363296,24.9238289 12.4912099,25.1406236 12.7001953,25.421875 C12.9091807,25.7031264 13.0673823,26.0419902 13.1748047,26.4384766 C13.2822271,26.8349629 13.3359375,27.2792944 13.3359375,27.7714844 L13.3359375,27.8945312 L13.3359375,27.8945312 Z M12.6328125,27.7714844 C12.6328125,27.404295 12.5976566,27.0605485 12.5273438,26.7402344 C12.4570309,26.4199203 12.3466804,26.1425793 12.1962891,25.9082031 C12.0458977,25.673827 11.8535168,25.4892585 11.6191406,25.3544922 C11.3847645,25.2197259 11.1035173,25.1523438 10.7753906,25.1523438 C10.5097643,25.1523438 10.2753916,25.1884762 10.0722656,25.2607422 C9.86913961,25.3330082 9.69336012,25.4296869 9.54492188,25.5507812 C9.39648363,25.6718756 9.27148488,25.8105461 9.16992188,25.9667969 C9.06835887,26.1230477 8.98632844,26.2851554 8.92382812,26.453125 L8.92382812,29.3125 C8.99804725,29.4804696 9.09081976,29.6376946 9.20214844,29.7841797 C9.31347712,29.9306648 9.44531174,30.0576167 9.59765625,30.1650391 C9.75000076,30.2724615 9.9248037,30.356445 10.1220703,30.4169922 C10.3193369,30.4775394 10.5410144,30.5078125 10.7871094,30.5078125 C11.1035172,30.5078125 11.3779285,30.4414069 11.6103516,30.3085938 C11.8427746,30.1757806 12.0351555,29.9921887 12.1875,29.7578125 C12.3398445,29.5234363 12.4521481,29.2470719 12.5244141,28.9287109 C12.59668,28.61035 12.6328125,28.2656269 12.6328125,27.8945312 L12.6328125,27.7714844 L12.6328125,27.7714844 Z M14.4960938,27.7363281 C14.4960938,27.2753883 14.5634759,26.8496113 14.6982422,26.4589844 C14.8330085,26.0683574 15.0234363,25.7314467 15.2695312,25.4482422 C15.5156262,25.1650376 15.8124983,24.9433602 16.1601562,24.7832031 C16.5078142,24.6230461 16.8945291,24.5429688 17.3203125,24.5429688 C17.7539084,24.5429688 18.1455061,24.6230461 18.4951172,24.7832031 C18.8447283,24.9433602 19.1425769,25.1650376 19.3886719,25.4482422 C19.6347669,25.7314467 19.8242181,26.0683574 19.9570312,26.4589844 C20.0898444,26.8496113 20.15625,27.2753883 20.15625,27.7363281 L20.15625,27.9296875 C20.15625,28.3906273 20.0898444,28.8164043 19.9570312,29.2070312 C19.8242181,29.5976582 19.6347669,29.9345689 19.3886719,30.2177734 C19.1425769,30.500978 18.8457049,30.7216789 18.4980469,30.8798828 C18.1503889,31.0380867 17.7617209,31.1171875 17.3320312,31.1171875 C16.9023416,31.1171875 16.5136736,31.0380867 16.1660156,30.8798828 C15.8183576,30.7216789 15.5205091,30.500978 15.2724609,30.2177734 C15.0244128,29.9345689 14.8330085,29.5976582 14.6982422,29.2070312 C14.5634759,28.8164043 14.4960938,28.3906273 14.4960938,27.9296875 L14.4960938,27.7363281 L14.4960938,27.7363281 Z M15.1992188,27.9296875 C15.1992188,28.2773455 15.2460933,28.6083969 15.3398438,28.9228516 C15.4335942,29.2373063 15.5703116,29.5126941 15.75,29.7490234 C15.9296884,29.9853527 16.1523424,30.1738274 16.4179688,30.3144531 C16.6835951,30.4550788 16.9882795,30.5253906 17.3320312,30.5253906 C17.675783,30.5253906 17.9794909,30.4550788 18.2431641,30.3144531 C18.5068373,30.1738274 18.7285147,29.9853527 18.9082031,29.7490234 C19.0878915,29.5126941 19.2246089,29.2373063 19.3183594,28.9228516 C19.4121098,28.6083969 19.4589844,28.2773455 19.4589844,27.9296875 L19.4589844,27.7363281 C19.4589844,27.3964827 19.4121098,27.0693375 19.3183594,26.7548828 C19.2246089,26.4404281 19.0878915,26.1640637 18.9082031,25.9257812 C18.7285147,25.6874988 18.5048842,25.497071 18.2373047,25.3544922 C17.9697252,25.2119133 17.6640642,25.140625 17.3203125,25.140625 C16.9804671,25.140625 16.6787123,25.2119133 16.4150391,25.3544922 C16.1513659,25.497071 15.9296884,25.6874988 15.75,25.9257812 C15.5703116,26.1640637 15.4335942,26.4404281 15.3398438,26.7548828 C15.2460933,27.0693375 15.1992188,27.3964827 15.1992188,27.7363281 L15.1992188,27.9296875 L15.1992188,27.9296875 Z M25.6816406,30.1972656 C25.4824209,30.4863296 25.2177751,30.7119133 24.8876953,30.8740234 C24.5576155,31.0361336 24.1484399,31.1171875 23.6601562,31.1171875 C23.3476547,31.1171875 23.0644544,31.0732426 22.8105469,30.9853516 C22.5566394,30.8974605 22.3378915,30.7578135 22.1542969,30.5664062 C21.9707022,30.374999 21.8291021,30.1279312 21.7294922,29.8251953 C21.6298823,29.5224594 21.5800781,29.154299 21.5800781,28.7207031 L21.5800781,24.6601562 L22.2773438,24.6601562 L22.2773438,28.7324219 C22.2773438,29.0722673 22.3164059,29.3554676 22.3945312,29.5820312 C22.4726566,29.8085949 22.5781243,29.9902337 22.7109375,30.1269531 C22.8437507,30.2636726 22.9990225,30.3613278 23.1767578,30.4199219 C23.3544931,30.4785159 23.5429678,30.5078125 23.7421875,30.5078125 C24.0234389,30.5078125 24.2714833,30.4765628 24.4863281,30.4140625 C24.7011729,30.3515622 24.886718,30.2636724 25.0429688,30.1503906 C25.1992195,30.0371088 25.3281245,29.9042976 25.4296875,29.7519531 C25.5312505,29.5996086 25.6113278,29.4316415 25.6699219,29.2480469 L25.6699219,24.6601562 L26.3730469,24.6601562 L26.3730469,31 L25.6933594,31 L25.6816406,30.1972656 L25.6816406,30.1972656 Z M29.2851562,23.0371094 L29.2851562,24.6601562 L30.5976562,24.6601562 L30.5976562,25.234375 L29.2851562,25.234375 L29.2851562,29.4589844 C29.2851562,29.6816417 29.307617,29.8603509 29.3525391,29.9951172 C29.3974612,30.1298835 29.4580074,30.2353512 29.5341797,30.3115234 C29.6103519,30.3876957 29.6982417,30.4384764 29.7978516,30.4638672 C29.8974614,30.4892579 30.0019526,30.5019531 30.1113281,30.5019531 C30.2167974,30.5019531 30.3183589,30.4951173 30.4160156,30.4814453 C30.5136724,30.4677734 30.6015621,30.4550782 30.6796875,30.4433594 L30.7089844,31.0175781 C30.6230464,31.0488283 30.5107429,31.0732421 30.3720703,31.0908203 C30.2333977,31.1083985 30.0957038,31.1171875 29.9589844,31.1171875 C29.7597646,31.1171875 29.5751962,31.0908206 29.4052734,31.0380859 C29.2353507,30.9853513 29.0898444,30.8945319 28.96875,30.765625 C28.8476556,30.6367181 28.75293,30.4658214 28.6845703,30.2529297 C28.6162106,30.040038 28.5820312,29.7753922 28.5820312,29.4589844 L28.5820312,25.234375 L27.4160156,25.234375 L27.4160156,24.6601562 L28.5820312,24.6601562 L28.5820312,23.0371094 L29.2851562,23.0371094 L29.2851562,23.0371094 Z" fill="#545454"></path>
            </g>
        </g>
    </g>
</svg>