<?xml version="1.0" encoding="UTF-8" standalone="no"?>
<svg width="34px" height="33px" viewBox="0 0 34 33" version="1.1" xmlns="http://www.w3.org/2000/svg" xmlns:xlink="http://www.w3.org/1999/xlink">
    <defs></defs>
    <g id="Page-9" stroke="none" stroke-width="1" fill="none" fill-rule="evenodd">
        <g id="Desktop-Landscape" transform="translate(-164.000000, -110.000000)">
            <g id="Events" transform="translate(164.000000, 110.000000)">
                <path d="M10,9.34324054 C10,9.15367402 10.1598822,9 10.3492623,9 L13.1595096,9 C13.3524019,9 13.5087719,9.15712565 13.5087719,9.34324054 L13.5087719,12.1050353 C13.5087719,12.2946018 13.3488897,12.4482759 13.1595096,12.4482759 L10.3492623,12.4482759 C10.1563701,12.4482759 10,12.2911502 10,12.1050353 L10,9.34324054 L10,9.34324054 Z M15.6140351,9.34324054 C15.6140351,9.15367402 15.7739173,9 15.9632974,9 L18.7735447,9 C18.966437,9 19.122807,9.15712565 19.122807,9.34324054 L19.122807,12.1050353 C19.122807,12.2946018 18.9629248,12.4482759 18.7735447,12.4482759 L15.9632974,12.4482759 C15.7704051,12.4482759 15.6140351,12.2911502 15.6140351,12.1050353 L15.6140351,9.34324054 L15.6140351,9.34324054 Z M15.6140351,14.5156543 C15.6140351,14.3260878 15.7739173,14.1724138 15.9632974,14.1724138 L18.7735447,14.1724138 C18.966437,14.1724138 19.122807,14.3295394 19.122807,14.5156543 L19.122807,17.2774491 C19.122807,17.4670156 18.9629248,17.6206897 18.7735447,17.6206897 L15.9632974,17.6206897 C15.7704051,17.6206897 15.6140351,17.463564 15.6140351,17.2774491 L15.6140351,14.5156543 L15.6140351,14.5156543 Z M21.2280702,14.5156543 C21.2280702,14.3260878 21.3879524,14.1724138 21.5773325,14.1724138 L24.3875798,14.1724138 C24.580472,14.1724138 24.7368421,14.3295394 24.7368421,14.5156543 L24.7368421,17.2774491 C24.7368421,17.4670156 24.5769599,17.6206897 24.3875798,17.6206897 L21.5773325,17.6206897 C21.3844402,17.6206897 21.2280702,17.463564 21.2280702,17.2774491 L21.2280702,14.5156543 L21.2280702,14.5156543 Z M21.2280702,9.34324054 C21.2280702,9.15367402 21.3879524,9 21.5773325,9 L24.3875798,9 C24.580472,9 24.7368421,9.15712565 24.7368421,9.34324054 L24.7368421,12.1050353 C24.7368421,12.2946018 24.5769599,12.4482759 24.3875798,12.4482759 L21.5773325,12.4482759 C21.3844402,12.4482759 21.2280702,12.2911502 21.2280702,12.1050353 L21.2280702,9.34324054 L21.2280702,9.34324054 Z M10,14.5156543 C10,14.3260878 10.1598822,14.1724138 10.3492623,14.1724138 L13.1595096,14.1724138 C13.3524019,14.1724138 13.5087719,14.3295394 13.5087719,14.5156543 L13.5087719,17.2774491 C13.5087719,17.4670156 13.3488897,17.6206897 13.1595096,17.6206897 L10.3492623,17.6206897 C10.1563701,17.6206897 10,17.463564 10,17.2774491 L10,14.5156543 L10,14.5156543 Z" id="Rectangle-4" fill="#E2E2E2"></path>
                <path d="M7,3.79072492 C7,3.03026647 7.63159268,2.4137931 8.40636116,2.4137931 L25.5936388,2.4137931 C26.3703507,2.4137931 27,3.03011375 27,3.79072492 L27,7.24137931 L7,7.24137931 L7,3.79072492 L7,3.79072492 Z M22.4385965,2.4137931 L25.5936388,2.4137931 C26.3703507,2.4137931 27,3.02938382 27,3.79375326 L27,18.6200398 C27,19.3821708 26.3684073,20 25.5936388,20 L8.40636116,20 C7.62964934,20 7,19.3844093 7,18.6200398 L7,3.79375326 C7,3.03162231 7.63159268,2.4137931 8.40636116,2.4137931 L11.5614035,2.4137931 L11.5614035,0.347188095 C11.5614035,0.155441405 11.7196404,0 11.9090449,0 L13.3190253,0 C13.5110223,0 13.6666667,0.155154744 13.6666667,0.347188095 L13.6666667,2.4137931 L20.3333333,2.4137931 L20.3333333,0.347188095 C20.3333333,0.155441405 20.4915702,0 20.6809747,0 L22.0909551,0 C22.2829521,0 22.4385965,0.155154744 22.4385965,0.347188095 L22.4385965,2.4137931 L22.4385965,2.4137931 L22.4385965,2.4137931 Z M8,3.78053466 L8,3.78053466 L8,18.3229136 C8,18.6978889 8.30417413,19 8.68200618,19 L25.3179938,19 C25.6938057,19 26,18.6958316 26,18.3229136 L26,3.78053466 C26,3.40555934 25.6958259,3.10344828 25.3179938,3.10344828 L8.68200618,3.10344828 C8.30619431,3.10344828 8,3.40761663 8,3.78053466 L8,3.78053466 L8,3.78053466 Z" id="Shape" fill="#545454"></path>
                <path d="M4.7109375,28.4414062 L0.720703125,28.4414062 L0.720703125,31.921875 L5.30859375,31.921875 L5.30859375,32.53125 L0,32.53125 L0,24 L5.27929688,24 L5.27929688,24.6152344 L0.720703125,24.6152344 L0.720703125,27.8320312 L4.7109375,27.8320312 L4.7109375,28.4414062 Z M8.484375,31.5644531 L10.4121094,26.1914062 L11.1328125,26.1914062 L8.765625,32.53125 L8.19726562,32.53125 L5.81835938,26.1914062 L6.5390625,26.1914062 L8.484375,31.5644531 Z M14.6601562,32.6484375 C14.2460917,32.6484375 13.8652361,32.5712898 13.5175781,32.4169922 C13.1699201,32.2626945 12.8701184,32.0478529 12.6181641,31.7724609 C12.3662097,31.4970689 12.1699226,31.1699238 12.0292969,30.7910156 C11.8886712,30.4121075 11.8183594,29.996096 11.8183594,29.5429688 L11.8183594,29.2910156 C11.8183594,28.8027319 11.8916008,28.3603535 12.0380859,27.9638672 C12.184571,27.5673808 12.3828112,27.2294936 12.6328125,26.9501953 C12.8828138,26.670897 13.1708968,26.4550789 13.4970703,26.3027344 C13.8232438,26.1503899 14.1679669,26.0742188 14.53125,26.0742188 C14.9335958,26.0742188 15.2910141,26.1464837 15.6035156,26.2910156 C15.9160172,26.4355476 16.1787099,26.6367175 16.3916016,26.8945312 C16.6044933,27.152345 16.7656245,27.4589826 16.875,27.8144531 C16.9843755,28.1699237 17.0390625,28.5585916 17.0390625,28.9804688 L17.0390625,29.4082031 L12.515625,29.4082031 L12.515625,29.5429688 C12.515625,29.8906267 12.5683588,30.2177719 12.6738281,30.5244141 C12.7792974,30.8310562 12.9277334,31.0976551 13.1191406,31.3242188 C13.3105478,31.5507824 13.5390612,31.7294915 13.8046875,31.8603516 C14.0703138,31.9912116 14.3652328,32.0566406 14.6894531,32.0566406 C15.064455,32.0566406 15.3955064,31.9882819 15.6826172,31.8515625 C15.969728,31.7148431 16.2304676,31.4960953 16.4648438,31.1953125 L16.9042969,31.5292969 C16.7988276,31.6816414 16.6767585,31.8261712 16.5380859,31.9628906 C16.3994134,32.0996101 16.2382822,32.2187495 16.0546875,32.3203125 C15.8710928,32.4218755 15.6640637,32.5019528 15.4335938,32.5605469 C15.2031238,32.6191409 14.9453139,32.6484375 14.6601562,32.6484375 L14.6601562,32.6484375 Z M14.53125,26.671875 C14.2656237,26.671875 14.0195324,26.7226557 13.7929688,26.8242188 C13.5664051,26.9257818 13.3662118,27.0703116 13.1923828,27.2578125 C13.0185538,27.4453134 12.8759771,27.6708971 12.7646484,27.9345703 C12.6533198,28.1982435 12.5781252,28.4902328 12.5390625,28.8105469 L16.3417969,28.8105469 L16.3417969,28.734375 C16.3339843,28.4687487 16.291016,28.2119153 16.2128906,27.9638672 C16.1347652,27.7158191 16.0205086,27.4960947 15.8701172,27.3046875 C15.7197258,27.1132803 15.5332042,26.9599615 15.3105469,26.8447266 C15.0878895,26.7294916 14.8281265,26.671875 14.53125,26.671875 L14.53125,26.671875 Z M19.0722656,26.1914062 L19.0957031,27.2753906 C19.2050787,27.0957022 19.331054,26.9316414 19.4736328,26.7832031 C19.6162117,26.6347649 19.7753897,26.507813 19.9511719,26.4023438 C20.126954,26.2968745 20.3164052,26.2158206 20.5195312,26.1591797 C20.7226573,26.1025388 20.9374989,26.0742188 21.1640625,26.0742188 C21.4804703,26.0742188 21.7636706,26.1171871 22.0136719,26.203125 C22.2636731,26.2890629 22.4755851,26.4257803 22.6494141,26.6132812 C22.8232431,26.8007822 22.9560542,27.0419907 23.0478516,27.3369141 C23.1396489,27.6318374 23.1855469,27.9882792 23.1855469,28.40625 L23.1855469,32.53125 L22.4882812,32.53125 L22.4882812,28.4003906 C22.4882812,28.072264 22.4531254,27.7988292 22.3828125,27.5800781 C22.3124996,27.361327 22.2128913,27.1855475 22.0839844,27.0527344 C21.9550775,26.9199212 21.7978525,26.8251956 21.6123047,26.7685547 C21.4267569,26.7119138 21.2207043,26.6835938 20.9941406,26.6835938 C20.7441394,26.6835938 20.5175791,26.7255855 20.3144531,26.8095703 C20.1113271,26.8935551 19.9316414,27.0058587 19.7753906,27.1464844 C19.6191398,27.2871101 19.4843756,27.4482413 19.3710938,27.6298828 C19.2578119,27.8115243 19.1679691,27.9980459 19.1015625,28.1894531 L19.1015625,32.53125 L18.4042969,32.53125 L18.4042969,26.1914062 L19.0722656,26.1914062 Z M26.0859375,24.5683594 L26.0859375,26.1914062 L27.3984375,26.1914062 L27.3984375,26.765625 L26.0859375,26.765625 L26.0859375,30.9902344 C26.0859375,31.2128917 26.1083982,31.3916009 26.1533203,31.5263672 C26.1982424,31.6611335 26.2587887,31.7666012 26.3349609,31.8427734 C26.4111332,31.9189457 26.4990229,31.9697264 26.5986328,31.9951172 C26.6982427,32.0205079 26.8027338,32.0332031 26.9121094,32.0332031 C27.0175787,32.0332031 27.1191401,32.0263673 27.2167969,32.0126953 C27.3144536,31.9990234 27.4023434,31.9863282 27.4804688,31.9746094 L27.5097656,32.5488281 C27.4238277,32.5800783 27.3115241,32.6044921 27.1728516,32.6220703 C27.034179,32.6396485 26.8964851,32.6484375 26.7597656,32.6484375 C26.5605459,32.6484375 26.3759774,32.6220706 26.2060547,32.5693359 C26.036132,32.5166013 25.8906256,32.4257819 25.7695312,32.296875 C25.6484369,32.1679681 25.5537113,31.9970714 25.4853516,31.7841797 C25.4169918,31.571288 25.3828125,31.3066422 25.3828125,30.9902344 L25.3828125,26.765625 L24.2167969,26.765625 L24.2167969,26.1914062 L25.3828125,26.1914062 L25.3828125,24.5683594 L26.0859375,24.5683594 Z M32.6484375,30.9199219 C32.6484375,30.791015 32.6259768,30.66211 32.5810547,30.5332031 C32.5361326,30.4042962 32.4521491,30.2822271 32.3291016,30.1669922 C32.2060541,30.0517572 32.0341808,29.9443364 31.8134766,29.8447266 C31.5927723,29.7451167 31.3066424,29.6582035 30.9550781,29.5839844 C30.6035139,29.5097653 30.2900404,29.4238286 30.0146484,29.3261719 C29.7392564,29.2285151 29.5068369,29.1103523 29.3173828,28.9716797 C29.1279287,28.8330071 28.9843755,28.6679697 28.8867188,28.4765625 C28.789062,28.2851553 28.7402344,28.0605482 28.7402344,27.8027344 C28.7402344,27.5683582 28.7919917,27.3457042 28.8955078,27.1347656 C28.999024,26.9238271 29.14746,26.7402352 29.3408203,26.5839844 C29.5341807,26.4277336 29.7685533,26.3037114 30.0439453,26.2119141 C30.3193373,26.1201167 30.6289045,26.0742188 30.9726562,26.0742188 C31.3398456,26.0742188 31.6689439,26.1220698 31.9599609,26.2177734 C32.250978,26.313477 32.4970693,26.4462882 32.6982422,26.6162109 C32.8994151,26.7861337 33.0527338,26.986327 33.1582031,27.2167969 C33.2636724,27.4472668 33.3164062,27.6972643 33.3164062,27.9667969 L32.6132812,27.9667969 C32.6132812,27.8027336 32.5771488,27.6425789 32.5048828,27.4863281 C32.4326168,27.3300773 32.3271491,27.1923834 32.1884766,27.0732422 C32.049804,26.954101 31.8779307,26.8574222 31.6728516,26.7832031 C31.4677724,26.708984 31.2343763,26.671875 30.9726562,26.671875 C30.6992174,26.671875 30.4658213,26.7050778 30.2724609,26.7714844 C30.0791006,26.837891 29.9208991,26.9238276 29.7978516,27.0292969 C29.6748041,27.1347662 29.5849612,27.252929 29.5283203,27.3837891 C29.4716794,27.5146491 29.4433594,27.6464837 29.4433594,27.7792969 C29.4433594,27.9199226 29.4648435,28.047851 29.5078125,28.1630859 C29.5507815,28.2783209 29.6337884,28.3857417 29.7568359,28.4853516 C29.8798834,28.5849614 30.0517567,28.6767574 30.2724609,28.7607422 C30.4931652,28.844727 30.7812482,28.927734 31.1367188,29.0097656 C31.5195332,29.0996098 31.849608,29.1992182 32.1269531,29.3085938 C32.4042983,29.4179693 32.6337882,29.5478508 32.8154297,29.6982422 C32.9970712,29.8486336 33.1318355,30.0205068 33.2197266,30.2138672 C33.3076176,30.4072275 33.3515625,30.6308581 33.3515625,30.8847656 C33.3515625,31.1464857 33.2968755,31.3857411 33.1875,31.6025391 C33.0781245,31.819337 32.921876,32.004882 32.71875,32.1591797 C32.515624,32.3134773 32.2695327,32.4335933 31.9804688,32.5195312 C31.6914048,32.6054692 31.3691424,32.6484375 31.0136719,32.6484375 C30.6113261,32.6484375 30.2558609,32.5966802 29.9472656,32.4931641 C29.6386703,32.3896479 29.3789073,32.2500009 29.1679688,32.0742188 C28.9570302,31.8984366 28.7978521,31.6962902 28.6904297,31.4677734 C28.5830073,31.2392567 28.5292969,31.0019544 28.5292969,30.7558594 L29.2324219,30.7558594 C29.248047,31.0058606 29.3124994,31.2138664 29.4257812,31.3798828 C29.5390631,31.5458993 29.6796867,31.6787104 29.8476562,31.7783203 C30.0156258,31.8779302 30.2021474,31.9492185 30.4072266,31.9921875 C30.6123057,32.0351565 30.8144521,32.0566406 31.0136719,32.0566406 C31.2792982,32.0566406 31.5136709,32.0253909 31.7167969,31.9628906 C31.9199229,31.9003903 32.0908196,31.8164068 32.2294922,31.7109375 C32.3681648,31.6054682 32.4726559,31.4843757 32.5429688,31.3476562 C32.6132816,31.2109368 32.6484375,31.0683601 32.6484375,30.9199219 L32.6484375,30.9199219 Z" fill="#545454"></path>
            </g>
        </g>
    </g>
</svg>