<?xml version="1.0" encoding="UTF-8" standalone="no"?>
<svg width="164px" height="260px" viewBox="0 0 164 260" version="1.1" xmlns="http://www.w3.org/2000/svg" xmlns:xlink="http://www.w3.org/1999/xlink">
    <g id="Pencil" transform="translate(0.000000, -1.000000)" stroke="none" stroke-width="1" fill="none" fill-rule="evenodd">
        <path d="M123.543376,238.977342 L162.53709,260.171608 L163.679174,215.804928 L66.8663528,48.1202023 L26.7305547,71.2926161 L123.543376,238.977342 L123.543376,238.977342 Z" id="pencil" fill="#444"></path>
        <path d="M58.5993073,33.8012595 L18.4635093,56.9736733 L9.32128073,41.138869 L1.77200483,28.0631396 C-0.426443196,24.2553159 1.00846583,19.3215382 4.97137199,17.0335532 L30.7562173,2.14666586 C34.7150585,-0.138972175 39.7118584,1.0872384 41.9078029,4.89072579 L49.4570788,17.9664552 L58.5993073,33.8012595 L58.5993073,33.8012595 Z" id="eraser" fill="#444"></path>
        <path d="M162.316667,260.051801 L162.53709,260.171608 L163.679174,215.804928 L66.8663528,48.1202023 L46.8228751,59.6923095 L162.454528,259.972207 L162.316667,260.051801 L162.316667,260.051801 Z" id="pencilHalf" fill="#1d1d1d"></path>
        <path d="M38.5314083,45.3874664 L58.5993073,33.8012595 L49.4570788,17.9664552 L41.9078029,4.89072579 C39.7118584,1.0872384 34.7150585,-0.138972175 30.7562173,2.14666586 L17.8637947,9.59010955 L38.5314083,45.3874664 L38.5314083,45.3874664 Z" id="eraserHalf" fill="#1d1d1d"></path>
    </g>
</svg>
