<?xml version="1.0" encoding="UTF-8" standalone="no"?>
<svg width="31px" height="32px" viewBox="0 0 31 32" version="1.1" xmlns="http://www.w3.org/2000/svg" xmlns:xlink="http://www.w3.org/1999/xlink">
    <defs></defs>
    <g id="Page-9" stroke="none" stroke-width="1" fill="none" fill-rule="evenodd">
        <g id="Desktop-Landscape" transform="translate(-226.000000, -126.000000)">
            <g id="People" transform="translate(226.000000, 126.000000)">
                <path d="M15,18 L15,18 C19.418278,18 23,14.418278 23,10 C23,5.581722 19.418278,2 15,2 C10.581722,2 7,5.581722 7,10 C7,14.418278 10.581722,18 15,18 L15,18 L15,18 Z M15,20 L15,20 C9.4771525,20 5,15.5228475 5,10 C5,4.4771525 9.4771525,0 15,0 C20.5228475,0 25,4.4771525 25,10 C25,15.5228475 20.5228475,20 15,20 L15,20 L15,20 Z" id="Shape" fill="#545454"></path>
                <path d="M15.1111111,10.7684729 C16.5254276,10.7684729 17.6719577,9.70101389 17.6719577,8.38423645 C17.6719577,7.06745902 16.5254276,6 15.1111111,6 C13.6967946,6 12.5502646,7.06745902 12.5502646,8.38423645 C12.5502646,9.70101389 13.6967946,10.7684729 15.1111111,10.7684729 L15.1111111,10.7684729 L15.1111111,10.7684729 Z M12,14 L18.2222222,14 L18.2222222,11.773399 C18.2222222,11.773399 16.5254276,11.2413793 15.1111111,11.2413793 C13.6967946,11.2413793 12,11.773399 12,11.773399 L12,14 L12,14 Z" id="Oval-2" fill="#EAEAEA"></path>
                <path d="M0.652464066,26.8309426 L0.652464066,29.8688525 L0,29.8688525 L0,22.4098361 L2.63107461,22.4098361 C3.0554436,22.4098361 3.42941317,22.4644803 3.75299452,22.5737705 C4.07657588,22.6830607 4.34799115,22.8358938 4.56724846,23.0322746 C4.78650577,23.2286554 4.95183038,23.4634549 5.06322724,23.7366803 C5.1746241,24.0099057 5.2303217,24.3104492 5.2303217,24.6383197 C5.2303217,24.9832668 5.1746241,25.2914945 5.06322724,25.5630123 C4.95183038,25.83453 4.78738986,26.0642067 4.56990075,26.2520492 C4.35241164,26.4398916 4.08099638,26.5833328 3.75564682,26.682377 C3.43029726,26.7814213 3.0554436,26.8309426 2.63107461,26.8309426 L0.652464066,26.8309426 L0.652464066,26.8309426 Z M0.652464066,26.2981557 L2.63107461,26.2981557 C2.97410621,26.2981557 3.26939187,26.2563187 3.51694045,26.1726434 C3.76448903,26.0889682 3.96606128,25.9728491 4.12166324,25.8242828 C4.27726521,25.6757165 4.39219675,25.5006841 4.46646133,25.2991803 C4.5407259,25.0976766 4.57785763,24.8808072 4.57785763,24.6485656 C4.57785763,24.4197393 4.5407259,24.2020161 4.46646133,23.9953893 C4.39219675,23.7887626 4.27726521,23.6077535 4.12166324,23.4523566 C3.96606128,23.2969596 3.76448903,23.17401 3.51694045,23.0835041 C3.26939187,22.9929982 2.97410621,22.9477459 2.63107461,22.9477459 L0.652464066,22.9477459 L0.652464066,26.2981557 L0.652464066,26.2981557 Z M8.69421629,29.9713115 C8.31935701,29.9713115 7.97456238,29.90386 7.65982204,29.7689549 C7.3450817,29.6340499 7.07366644,29.4462102 6.8455681,29.2054303 C6.61746977,28.9646504 6.43976792,28.6786219 6.31245722,28.3473361 C6.18514652,28.0160503 6.12149213,27.6523244 6.12149213,27.2561475 L6.12149213,27.0358607 C6.12149213,26.608946 6.18779879,26.222167 6.3204141,25.8755123 C6.45302941,25.5288576 6.63249944,25.233437 6.85882957,24.9892418 C7.0851597,24.7450466 7.3459659,24.5563531 7.64125599,24.4231557 C7.93654608,24.2899584 8.24862943,24.2233607 8.5775154,24.2233607 C8.94176545,24.2233607 9.26534196,24.2865431 9.54825462,24.4129098 C9.83116728,24.5392766 10.0689872,24.7151628 10.2617214,24.9405738 C10.4544557,25.1659847 10.6003303,25.4340831 10.6993498,25.744877 C10.7983692,26.055671 10.8478782,26.39549 10.8478782,26.7643443 L10.8478782,27.1383197 L6.75273785,27.1383197 L6.75273785,27.2561475 C6.75273785,27.5601108 6.80047865,27.8461394 6.89596167,28.1142418 C6.99144469,28.3823442 7.12582619,28.6154362 7.2991102,28.8135246 C7.4723942,29.011613 7.67927099,29.1678614 7.91974675,29.2822746 C8.16022251,29.3966877 8.42721733,29.4538934 8.72073922,29.4538934 C9.06023441,29.4538934 9.35994052,29.3941263 9.61986653,29.2745902 C9.87979254,29.155054 10.1158443,28.9637991 10.3280287,28.7008197 L10.7258727,28.9928279 C10.6303897,29.1260253 10.5198786,29.2523901 10.3943361,29.3719262 C10.2687936,29.4914623 10.1229189,29.595628 9.95670773,29.6844262 C9.79049655,29.7732245 9.60306972,29.8432374 9.39442163,29.8944672 C9.18577354,29.945697 8.95237409,29.9713115 8.69421629,29.9713115 L8.69421629,29.9713115 L8.69421629,29.9713115 Z M8.5775154,24.7459016 C8.33703964,24.7459016 8.11424926,24.7903001 7.90913758,24.8790984 C7.7040259,24.9678966 7.52278769,25.0942615 7.36541752,25.2581967 C7.20804735,25.422132 7.07897039,25.6193636 6.97818275,25.8498975 C6.87739512,26.0804315 6.80932028,26.3357226 6.77395619,26.6157787 L10.2166324,26.6157787 L10.2166324,26.5491803 C10.2095596,26.3169387 10.1706597,26.092385 10.0999316,25.8755123 C10.0292034,25.6586396 9.925765,25.4665309 9.78961328,25.2991803 C9.65346156,25.1318298 9.4846006,24.9977806 9.28302533,24.8970287 C9.08145005,24.7962768 8.84628243,24.7459016 8.5775154,24.7459016 L8.5775154,24.7459016 L8.5775154,24.7459016 Z M11.733744,27.0153689 C11.733744,26.6123614 11.7947461,26.2400973 11.9167522,25.8985656 C12.0387583,25.5570338 12.2111556,25.2624671 12.4339493,25.0148566 C12.6567431,24.767246 12.9255061,24.5734297 13.2402464,24.4334016 C13.5549867,24.2933736 13.9050859,24.2233607 14.2905544,24.2233607 C14.6830957,24.2233607 15.0376153,24.2933736 15.3541239,24.4334016 C15.6706324,24.5734297 15.9402795,24.767246 16.1630732,25.0148566 C16.385867,25.2624671 16.5573802,25.5570338 16.6776181,25.8985656 C16.797856,26.2400973 16.857974,26.6123614 16.857974,27.0153689 L16.857974,27.1844262 C16.857974,27.5874337 16.797856,27.9596977 16.6776181,28.3012295 C16.5573802,28.6427613 16.385867,28.937328 16.1630732,29.1849385 C15.9402795,29.4325491 15.6715165,29.6255116 15.3567762,29.763832 C15.0420358,29.9021523 14.6901685,29.9713115 14.3011636,29.9713115 C13.9121587,29.9713115 13.5602913,29.9021523 13.245551,29.763832 C12.9308107,29.6255116 12.6611636,29.4325491 12.4366016,29.1849385 C12.2120397,28.937328 12.0387583,28.6427613 11.9167522,28.3012295 C11.7947461,27.9596977 11.733744,27.5874337 11.733744,27.1844262 L11.733744,27.0153689 L11.733744,27.0153689 Z M12.3702943,27.1844262 C12.3702943,27.4883895 12.4127306,27.7778333 12.4976044,28.0527664 C12.5824782,28.3276995 12.7062506,28.5684757 12.8689254,28.7751025 C13.0316002,28.9817292 13.2331724,29.1465158 13.4736482,29.2694672 C13.7141239,29.3924186 13.9899597,29.4538934 14.3011636,29.4538934 C14.6123675,29.4538934 14.8873191,29.3924186 15.1260267,29.2694672 C15.3647343,29.1465158 15.5654224,28.9817292 15.7280972,28.7751025 C15.890772,28.5684757 16.0145444,28.3276995 16.0994182,28.0527664 C16.184292,27.7778333 16.2267283,27.4883895 16.2267283,27.1844262 L16.2267283,27.0153689 C16.2267283,26.7182362 16.184292,26.4322077 16.0994182,26.1572746 C16.0145444,25.8823415 15.890772,25.6407114 15.7280972,25.432377 C15.5654224,25.2240427 15.3629661,25.0575484 15.1207221,24.9328893 C14.8784781,24.8082303 14.6017583,24.7459016 14.2905544,24.7459016 C13.9828869,24.7459016 13.7097035,24.8082303 13.4709959,24.9328893 C13.2322883,25.0575484 13.0316002,25.2240427 12.8689254,25.432377 C12.7062506,25.6407114 12.5824782,25.8823415 12.4976044,26.1572746 C12.4127306,26.4322077 12.3702943,26.7182362 12.3702943,27.0153689 L12.3702943,27.1844262 L12.3702943,27.1844262 Z M22.7831964,27.1536885 C22.7831964,27.5703573 22.7345716,27.9511595 22.6373203,28.2961066 C22.5400691,28.6410536 22.3977308,28.937328 22.2103012,29.1849385 C22.0228715,29.4325491 21.7938925,29.6255116 21.5233573,29.763832 C21.2528221,29.9021523 20.9442751,29.9713115 20.597707,29.9713115 C20.1874837,29.9713115 19.8329641,29.9004447 19.5341376,29.758709 C19.2353111,29.6169733 18.9886503,29.4214493 18.7941478,29.1721311 L18.7941478,32 L18.1629021,32 L18.1629021,24.3258197 L18.7517112,24.3258197 L18.7835387,25.1096311 C18.9780411,24.8329904 19.2238178,24.616121 19.5208761,24.4590164 C19.8179344,24.3019118 20.1715699,24.2233607 20.5817933,24.2233607 C20.9318977,24.2233607 21.2439811,24.2899584 21.5180527,24.4231557 C21.7921243,24.5563531 22.0228715,24.7459004 22.2103012,24.9918033 C22.3977308,25.2377061 22.5400691,25.5339805 22.6373203,25.8806352 C22.7345716,26.22729 22.7831964,26.6157765 22.7831964,27.0461066 L22.7831964,27.1536885 L22.7831964,27.1536885 Z M22.1466461,27.0461066 C22.1466461,26.7250667 22.1121667,26.4245233 22.0432067,26.1444672 C21.9742467,25.8644112 21.8699243,25.6219273 21.7302361,25.4170082 C21.590548,25.2120891 21.4128462,25.0507178 21.1971253,24.9328893 C20.9814044,24.8150609 20.728555,24.7561475 20.4385695,24.7561475 C20.2087029,24.7561475 20.0053625,24.7851773 19.8285421,24.8432377 C19.6517217,24.9012981 19.4970061,24.9789954 19.3643908,25.076332 C19.2317755,25.1736685 19.1186122,25.2863723 19.0248973,25.4144467 C18.9311825,25.5425211 18.8542668,25.6765703 18.7941478,25.8165984 L18.7941478,28.4754098 C18.8613396,28.6154379 18.945328,28.745218 19.0461157,28.8647541 C19.1469033,28.9842902 19.2653712,29.087602 19.4015229,29.1746926 C19.5376746,29.2617832 19.6923902,29.3300886 19.8656742,29.3796107 C20.0389582,29.4291328 20.2334577,29.4538934 20.4491786,29.4538934 C20.7391641,29.4538934 20.9902453,29.3949801 21.2024298,29.2771516 C21.4146143,29.1593232 21.590548,28.997098 21.7302361,28.7904713 C21.8699243,28.5838446 21.9742467,28.3405069 22.0432067,28.0604508 C22.1121667,27.7803948 22.1466461,27.4781437 22.1466461,27.1536885 L22.1466461,27.0461066 L22.1466461,27.0461066 Z M24.8997262,29.8688525 L24.2631759,29.8688525 L24.2631759,22 L24.8997262,22 L24.8997262,29.8688525 L24.8997262,29.8688525 Z M28.8463381,29.9713115 C28.4714788,29.9713115 28.1266842,29.90386 27.8119439,29.7689549 C27.4972035,29.6340499 27.2257883,29.4462102 26.9976899,29.2054303 C26.7695916,28.9646504 26.5918898,28.6786219 26.4645791,28.3473361 C26.3372684,28.0160503 26.273614,27.6523244 26.273614,27.2561475 L26.273614,27.0358607 C26.273614,26.608946 26.3399206,26.222167 26.4725359,25.8755123 C26.6051512,25.5288576 26.7846213,25.233437 27.0109514,24.9892418 C27.2372815,24.7450466 27.4980877,24.5563531 27.7933778,24.4231557 C28.0886679,24.2899584 28.4007513,24.2233607 28.7296372,24.2233607 C29.0938873,24.2233607 29.4174638,24.2865431 29.7003765,24.4129098 C29.9832891,24.5392766 30.221109,24.7151628 30.4138433,24.9405738 C30.6065775,25.1659847 30.7524522,25.4340831 30.8514716,25.744877 C30.950491,26.055671 31,26.39549 31,26.7643443 L31,27.1383197 L26.9048597,27.1383197 L26.9048597,27.2561475 C26.9048597,27.5601108 26.9526005,27.8461394 27.0480835,28.1142418 C27.1435665,28.3823442 27.277948,28.6154362 27.451232,28.8135246 C27.624516,29.011613 27.8313928,29.1678614 28.0718686,29.2822746 C28.3123443,29.3966877 28.5793392,29.4538934 28.8728611,29.4538934 C29.2123562,29.4538934 29.5120624,29.3941263 29.7719884,29.2745902 C30.0319144,29.155054 30.2679661,28.9637991 30.4801506,28.7008197 L30.8779945,28.9928279 C30.7825115,29.1260253 30.6720004,29.2523901 30.5464579,29.3719262 C30.4209154,29.4914623 30.2750408,29.595628 30.1088296,29.6844262 C29.9426184,29.7732245 29.7551916,29.8432374 29.5465435,29.8944672 C29.3378954,29.945697 29.1044959,29.9713115 28.8463381,29.9713115 L28.8463381,29.9713115 L28.8463381,29.9713115 Z M28.7296372,24.7459016 C28.4891615,24.7459016 28.2663711,24.7903001 28.0612594,24.8790984 C27.8561477,24.9678966 27.6749095,25.0942615 27.5175394,25.2581967 C27.3601692,25.422132 27.2310922,25.6193636 27.1303046,25.8498975 C27.0295169,26.0804315 26.9614421,26.3357226 26.926078,26.6157787 L30.3687543,26.6157787 L30.3687543,26.5491803 C30.3616815,26.3169387 30.3227816,26.092385 30.2520534,25.8755123 C30.1813252,25.6586396 30.0778868,25.4665309 29.9417351,25.2991803 C29.8055834,25.1318298 29.6367224,24.9977806 29.4351472,24.8970287 C29.2335719,24.7962768 28.9984043,24.7459016 28.7296372,24.7459016 L28.7296372,24.7459016 L28.7296372,24.7459016 Z" fill="#545454"></path>
            </g>
        </g>
    </g>
</svg>
