<?xml version="1.0" encoding="UTF-8" standalone="no"?>
<svg width="37px" height="34px" viewBox="0 0 37 34" version="1.1" xmlns="http://www.w3.org/2000/svg" xmlns:xlink="http://www.w3.org/1999/xlink">
    <defs></defs>
    <g id="Page-9" stroke="none" stroke-width="1" fill="none" fill-rule="evenodd">
        <g id="Desktop-Landscape" transform="translate(-327.000000, -148.000000)">
            <g id="Submit" transform="translate(327.000000, 148.000000)">
                <path d="M17.3233938,11.8169333 L14.7759576,9.26949715 C14.5984466,9.09198611 14.3106443,9.09198611 14.1331333,9.26949715 C13.9556222,9.44700819 13.9556222,9.73481046 14.1331333,9.9123215 L17.3472549,13.1264431 C17.4601163,13.2393045 17.6175618,13.2804087 17.7628984,13.2497558 C17.9162361,13.2931946 18.0879252,13.2545649 18.2086235,13.1338666 L21.4227452,9.91974495 C21.6002562,9.7422339 21.6002562,9.45443164 21.4227452,9.2769206 C21.2452341,9.09940956 20.9574319,9.09940956 20.7799208,9.2769206 L18.2324847,11.8243567 L18.2324847,3.45454545 C18.2324847,3.20350693 18.0289778,3 17.7779392,3 C17.5269007,3 17.3233938,3.20350693 17.3233938,3.45454545 L17.3233938,11.8169333 L17.3233938,11.8169333 Z" id="Shape" fill="#E2E2E2"></path>
                <path d="M8.90909091,17.6939629 C8.90909091,18.4650679 9.49112608,19.0909091 10.2085758,19.0909091 L25.7914242,19.0909091 C26.5087313,19.0909091 27.0909091,18.4652213 27.0909091,17.6939629 L27.0909091,2.30603712 C27.0909091,1.53493206 26.5088739,0.909090909 25.7914242,0.909090909 L10.2085758,0.909090909 C9.49126872,0.909090909 8.90909091,1.53477872 8.90909091,2.30603712 L8.90909091,17.6939629 L8.90909091,17.6939629 Z M8,1.81900454 C8,0.814396074 8.81504147,0 9.81900454,0 L26.1809955,0 C27.1856039,0 28,0.81504147 28,1.81900454 L28,18.1809955 C28,19.1856039 27.1849585,20 26.1809955,20 L9.81900454,20 C8.81439607,20 8,19.1849585 8,18.1809955 L8,1.81900454 L8,1.81900454 Z M8,17.727247 C8,16.7231071 8.81504147,15.9090909 9.81900454,15.9090909 L26.1809955,15.9090909 C27.1856039,15.9090909 28,16.7271152 28,17.727247 L28,18.181844 C28,19.1859838 27.1849585,20 26.1809955,20 L9.81900454,20 C8.81439607,20 8,19.1819757 8,18.181844 L8,17.727247 L8,17.727247 Z" id="Shape" fill="#545454"></path>
                <path d="M5.390625,30.9023438 C5.390625,30.6679676 5.35253944,30.4599618 5.27636719,30.2783203 C5.20019493,30.0966788 5.07128997,29.9306648 4.88964844,29.7802734 C4.7080069,29.6298821 4.46875148,29.4921881 4.171875,29.3671875 C3.87499852,29.2421869 3.50390848,29.1171881 3.05859375,28.9921875 C2.6289041,28.8710931 2.24218922,28.7392585 1.8984375,28.5966797 C1.55468578,28.4541008 1.26269651,28.2871103 1.02246094,28.0957031 C0.782225361,27.9042959 0.596680342,27.683595 0.465820312,27.4335938 C0.334960283,27.1835925 0.26953125,26.8906267 0.26953125,26.5546875 C0.26953125,26.2265609 0.339843047,25.9277357 0.48046875,25.6582031 C0.621094453,25.3886705 0.818358105,25.1572275 1.07226562,24.9638672 C1.32617314,24.7705068 1.62890449,24.6201177 1.98046875,24.5126953 C2.33203301,24.4052729 2.71679479,24.3515625 3.13476562,24.3515625 C3.58398662,24.3515625 3.98925601,24.4179681 4.35058594,24.5507812 C4.71191587,24.6835944 5.01952998,24.8652332 5.2734375,25.0957031 C5.52734502,25.326173 5.72265557,25.5957016 5.859375,25.9042969 C5.99609443,26.2128922 6.06445312,26.5449201 6.06445312,26.9003906 L5.33789062,26.9003906 C5.33789062,26.6230455 5.28906299,26.3662121 5.19140625,26.1298828 C5.09374951,25.8935535 4.95117281,25.689454 4.76367188,25.5175781 C4.57617094,25.3457023 4.34570449,25.210938 4.07226562,25.1132812 C3.79882676,25.0156245 3.48632988,24.9667969 3.13476562,24.9667969 C2.78320137,24.9667969 2.47363415,25.0087886 2.20605469,25.0927734 C1.93847522,25.1767582 1.7158212,25.2900383 1.53808594,25.4326172 C1.36035067,25.575196 1.2255864,25.7421865 1.13378906,25.9335938 C1.04199173,26.125001 0.99609375,26.3281239 0.99609375,26.5429688 C0.99609375,26.7460948 1.03417931,26.9335929 1.11035156,27.1054688 C1.18652382,27.2773446 1.31445223,27.4365227 1.49414062,27.5830078 C1.67382902,27.7294929 1.91015479,27.8662103 2.203125,27.9931641 C2.49609521,28.1201178 2.85741973,28.2402338 3.28710938,28.3535156 C3.73633037,28.4785163 4.13671699,28.6152336 4.48828125,28.7636719 C4.83984551,28.9121101 5.13671754,29.0869131 5.37890625,29.2880859 C5.62109496,29.4892588 5.80468688,29.7207018 5.9296875,29.9824219 C6.05468812,30.2441419 6.1171875,30.5468733 6.1171875,30.890625 C6.1171875,31.238283 6.04394604,31.5498033 5.89746094,31.8251953 C5.75097583,32.1005873 5.54785286,32.3339834 5.28808594,32.5253906 C5.02831901,32.7167978 4.7187518,32.8632807 4.359375,32.9648438 C3.9999982,33.0664068 3.60937711,33.1171875 3.1875,33.1171875 C2.93359248,33.1171875 2.67871222,33.0957033 2.42285156,33.0527344 C2.16699091,33.0097654 1.92089962,32.9443364 1.68457031,32.8564453 C1.44824101,32.7685542 1.22754009,32.6562507 1.02246094,32.5195312 C0.817381787,32.3828118 0.639649189,32.2197275 0.489257812,32.0302734 C0.338866436,31.8408194 0.219727002,31.6240247 0.131835938,31.3798828 C0.043944873,31.135741 0,30.8632828 0,30.5625 L0.720703125,30.5625 C0.720703125,30.9218768 0.794921133,31.2255847 0.943359375,31.4736328 C1.09179762,31.7216809 1.28320195,31.9218742 1.51757812,32.0742188 C1.7519543,32.2265633 2.01562354,32.3369137 2.30859375,32.4052734 C2.60156396,32.4736332 2.89452979,32.5078125 3.1875,32.5078125 C3.51953291,32.5078125 3.82128771,32.4697269 4.09277344,32.3935547 C4.36425917,32.3173824 4.59667872,32.2089851 4.79003906,32.0683594 C4.9833994,31.9277337 5.13183542,31.75879 5.23535156,31.5615234 C5.33886771,31.3642568 5.390625,31.1445325 5.390625,30.9023438 L5.390625,30.9023438 L5.390625,30.9023438 Z M11.5839844,32.1972656 C11.3847646,32.4863296 11.1201188,32.7119133 10.7900391,32.8740234 C10.4599593,33.0361336 10.0507837,33.1171875 9.5625,33.1171875 C9.24999844,33.1171875 8.96679814,33.0732426 8.71289062,32.9853516 C8.45898311,32.8974605 8.24023529,32.7578135 8.05664062,32.5664062 C7.87304596,32.374999 7.73144581,32.1279312 7.63183594,31.8251953 C7.53222606,31.5224594 7.48242188,31.154299 7.48242188,30.7207031 L7.48242188,26.6601562 L8.1796875,26.6601562 L8.1796875,30.7324219 C8.1796875,31.0722673 8.21874961,31.3554676 8.296875,31.5820312 C8.37500039,31.8085949 8.48046809,31.9902337 8.61328125,32.1269531 C8.74609441,32.2636726 8.9013663,32.3613278 9.07910156,32.4199219 C9.25683683,32.4785159 9.4453115,32.5078125 9.64453125,32.5078125 C9.92578266,32.5078125 10.1738271,32.4765628 10.3886719,32.4140625 C10.6035167,32.3515622 10.7890617,32.2636724 10.9453125,32.1503906 C11.1015633,32.0371088 11.2304682,31.9042976 11.3320312,31.7519531 C11.4335943,31.5996086 11.5136716,31.4316415 11.5722656,31.2480469 L11.5722656,26.6601562 L12.2753906,26.6601562 L12.2753906,33 L11.5957031,33 L11.5839844,32.1972656 L11.5839844,32.1972656 Z M19.2011719,29.8945312 C19.2011719,30.3710961 19.1474615,30.8066387 19.0400391,31.2011719 C18.9326167,31.5957051 18.7753917,31.9345689 18.5683594,32.2177734 C18.3613271,32.500978 18.1074234,32.7216789 17.8066406,32.8798828 C17.5058579,33.0380867 17.1640644,33.1171875 16.78125,33.1171875 C16.3164039,33.1171875 15.918947,33.0292978 15.5888672,32.8535156 C15.2587874,32.6777335 14.9882823,32.4375015 14.7773438,32.1328125 L14.7480469,33 L14.0917969,33 L14.0917969,24 L14.7890625,24 L14.7890625,27.5800781 C15.0000011,27.2519515 15.2675765,26.9970712 15.5917969,26.8154297 C15.9160172,26.6337882 16.3085914,26.5429688 16.7695312,26.5429688 C17.1562519,26.5429688 17.4999985,26.6191399 17.8007812,26.7714844 C18.101564,26.9238289 18.3564443,27.1406236 18.5654297,27.421875 C18.7744151,27.7031264 18.9326167,28.0419902 19.0400391,28.4384766 C19.1474615,28.8349629 19.2011719,29.2792944 19.2011719,29.7714844 L19.2011719,29.8945312 L19.2011719,29.8945312 Z M18.4980469,29.7714844 C18.4980469,29.404295 18.462891,29.0605485 18.3925781,28.7402344 C18.3222653,28.4199203 18.2119148,28.1425793 18.0615234,27.9082031 C17.9111321,27.673827 17.7187512,27.4892585 17.484375,27.3544922 C17.2499988,27.2197259 16.9687516,27.1523438 16.640625,27.1523438 C16.3749987,27.1523438 16.140626,27.1884762 15.9375,27.2607422 C15.734374,27.3330082 15.5585945,27.4296869 15.4101562,27.5507812 C15.261718,27.6718756 15.1367193,27.8105461 15.0351562,27.9667969 C14.9335932,28.1230477 14.8515628,28.2851554 14.7890625,28.453125 L14.7890625,31.3125 C14.8632816,31.4804696 14.9560541,31.6376946 15.0673828,31.7841797 C15.1787115,31.9306648 15.3105461,32.0576167 15.4628906,32.1650391 C15.6152351,32.2724615 15.7900381,32.356445 15.9873047,32.4169922 C16.1845713,32.4775394 16.4062488,32.5078125 16.6523438,32.5078125 C16.9687516,32.5078125 17.2431629,32.4414069 17.4755859,32.3085938 C17.708009,32.1757806 17.9003899,31.9921887 18.0527344,31.7578125 C18.2050789,31.5234363 18.3173825,31.2470719 18.3896484,30.9287109 C18.4619144,30.61035 18.4980469,30.2656269 18.4980469,29.8945312 L18.4980469,29.7714844 L18.4980469,29.7714844 Z M21.3867188,26.6601562 L21.4101562,27.6914062 C21.5156255,27.5195304 21.6376946,27.3623054 21.7763672,27.2197266 C21.9150398,27.0771477 22.0703116,26.9560552 22.2421875,26.8564453 C22.4140634,26.7568354 22.6015615,26.6796878 22.8046875,26.625 C23.0078135,26.5703122 23.2265613,26.5429688 23.4609375,26.5429688 C23.9257836,26.5429688 24.3242171,26.640624 24.65625,26.8359375 C24.9882829,27.031251 25.2246087,27.3437479 25.3652344,27.7734375 C25.4667974,27.5976554 25.5888665,27.4345711 25.7314453,27.2841797 C25.8740242,27.1337883 26.0361319,27.0039068 26.2177734,26.8945312 C26.399415,26.7851557 26.5996083,26.6992191 26.8183594,26.6367188 C27.0371105,26.5742184 27.2734362,26.5429688 27.5273438,26.5429688 C27.8554704,26.5429688 28.1484362,26.5869136 28.40625,26.6748047 C28.6640638,26.7626958 28.881835,26.9013662 29.0595703,27.0908203 C29.2373056,27.2802744 29.3730464,27.5214829 29.4667969,27.8144531 C29.5605473,28.1074233 29.6074219,28.4589823 29.6074219,28.8691406 L29.6074219,33 L28.9042969,33 L28.9042969,28.8632812 C28.9042969,28.5273421 28.8671879,28.2490245 28.7929688,28.0283203 C28.7187496,27.8076161 28.6132819,27.6318366 28.4765625,27.5009766 C28.3398431,27.3701165 28.1767588,27.2792971 27.9873047,27.2285156 C27.7978506,27.1777341 27.5898449,27.1523438 27.3632812,27.1523438 C27.0664048,27.15625 26.8066417,27.2099604 26.5839844,27.3134766 C26.361327,27.4169927 26.1728523,27.5478508 26.0185547,27.7060547 C25.864257,27.8642586 25.7441411,28.0410146 25.6582031,28.2363281 C25.5722652,28.4316416 25.5214845,28.6210928 25.5058594,28.8046875 L25.5058594,33 L24.8027344,33 L24.8027344,28.8105469 C24.8027344,28.494139 24.7656254,28.2304698 24.6914062,28.0195312 C24.6171871,27.8085927 24.5117194,27.6386725 24.375,27.5097656 C24.2382806,27.3808587 24.0751963,27.2890628 23.8857422,27.234375 C23.6962881,27.1796872 23.4863293,27.1523438 23.2558594,27.1523438 C22.990233,27.1523438 22.7558604,27.1943355 22.5527344,27.2783203 C22.3496084,27.3623051 22.1728523,27.4746087 22.0224609,27.6152344 C21.8720696,27.7558601 21.7480474,27.9160147 21.6503906,28.0957031 C21.5527339,28.2753915 21.4746097,28.4609365 21.4160156,28.6523438 L21.4160156,33 L20.7128906,33 L20.7128906,26.6601562 L21.3867188,26.6601562 L21.3867188,26.6601562 Z M32.1679688,33 L31.4648438,33 L31.4648438,26.6601562 L32.1679688,26.6601562 L32.1679688,33 L32.1679688,33 Z M31.3417969,24.8261719 C31.3417969,24.6933587 31.3847652,24.5810551 31.4707031,24.4892578 C31.5566411,24.3974605 31.6738274,24.3515625 31.8222656,24.3515625 C31.9707039,24.3515625 32.0888667,24.3974605 32.1767578,24.4892578 C32.2646489,24.5810551 32.3085938,24.6933587 32.3085938,24.8261719 C32.3085938,24.958985 32.2646489,25.0703121 32.1767578,25.1601562 C32.0888667,25.2500004 31.9707039,25.2949219 31.8222656,25.2949219 C31.6738274,25.2949219 31.5566411,25.2500004 31.4707031,25.1601562 C31.3847652,25.0703121 31.3417969,24.958985 31.3417969,24.8261719 L31.3417969,24.8261719 L31.3417969,24.8261719 Z M35.1621094,25.0371094 L35.1621094,26.6601562 L36.4746094,26.6601562 L36.4746094,27.234375 L35.1621094,27.234375 L35.1621094,31.4589844 C35.1621094,31.6816417 35.1845701,31.8603509 35.2294922,31.9951172 C35.2744143,32.1298835 35.3349606,32.2353512 35.4111328,32.3115234 C35.4873051,32.3876957 35.5751948,32.4384764 35.6748047,32.4638672 C35.7744146,32.4892579 35.8789057,32.5019531 35.9882812,32.5019531 C36.0937505,32.5019531 36.195312,32.4951173 36.2929688,32.4814453 C36.3906255,32.4677734 36.4785152,32.4550782 36.5566406,32.4433594 L36.5859375,33.0175781 C36.4999996,33.0488283 36.387696,33.0732421 36.2490234,33.0908203 C36.1103509,33.1083985 35.9726569,33.1171875 35.8359375,33.1171875 C35.6367178,33.1171875 35.4521493,33.0908206 35.2822266,33.0380859 C35.1123038,32.9853513 34.9667975,32.8945319 34.8457031,32.765625 C34.7246088,32.6367181 34.6298832,32.4658214 34.5615234,32.2529297 C34.4931637,32.040038 34.4589844,31.7753922 34.4589844,31.4589844 L34.4589844,27.234375 L33.2929688,27.234375 L33.2929688,26.6601562 L34.4589844,26.6601562 L34.4589844,25.0371094 L35.1621094,25.0371094 L35.1621094,25.0371094 Z" fill="#545454"></path>
            </g>
        </g>
    </g>
</svg>