<?xml version="1.0" encoding="UTF-8" standalone="no"?>
<svg width="575px" height="624px" viewBox="0 0 575 624" version="1.1" xmlns="http://www.w3.org/2000/svg" xmlns:xlink="http://www.w3.org/1999/xlink">
    <defs></defs>
    <g id="Page-8" stroke="none" stroke-width="1" fill="none" fill-rule="evenodd">
        <g id="Artboard-2" transform="translate(-140.000000, -138.000000)">
            <g id="Logo" transform="translate(139.000000, 137.000000)">
                <path d="M400.75,482.922703 L400.75,482.922703 C508.126694,420.92874 544.916666,283.626694 482.922703,176.25 C420.92874,68.873306 283.626694,32.0833337 176.25,94.0772969 C68.873306,156.07126 32.0833337,293.373306 94.0772969,400.75 C156.07126,508.126694 293.373306,544.916666 400.75,482.922703 L400.75,482.922703 L400.75,482.922703 Z M432.25,537.482304 L432.25,537.482304 C294.740871,616.873236 118.908629,569.759129 39.5176964,432.25 C-39.8732364,294.740871 7.24087076,118.908629 144.75,39.5176964 C282.259129,-39.8732364 458.091371,7.24087076 537.482304,144.75 C616.873236,282.259129 569.759129,458.091371 432.25,537.482304 L432.25,537.482304 L432.25,537.482304 Z" id="Q-outline" fill="#444444"></path>
                <path d="M401.017259,483.385609 C509.533695,420.733615 546.714171,281.974187 484.062178,173.457751 C421.410184,64.9413147 282.650756,27.7608379 174.13432,90.4128314 L401.017259,483.385609 L401.017259,483.385609 Z" id="Q-fillHalf" fill-opacity="0.110026042" fill="#000000"></path>
                <path d="M160.5,66.7974966 L176.25,94.0772969 C283.626694,32.0833337 420.92874,68.873306 482.922703,176.25 C544.916666,283.626694 508.126694,420.92874 400.75,482.922703 L416.5,510.202503 L432.25,537.482304 C569.759129,458.091371 616.873236,282.259129 537.482304,144.75 C458.091371,7.24087076 282.259129,-39.8732364 144.75,39.5176964 L160.5,66.7974966 L160.5,66.7974966 Z" id="Q-outlineHalf" fill="#1D1D1D"></path>
                <path d="M443.543376,602.977342 L482.53709,624.171608 L483.679174,579.804928 L386.866353,412.120202 L346.730555,435.292616 L443.543376,602.977342 L443.543376,602.977342 Z" id="pencil" fill="#444444"></path>
                <path d="M378.599307,397.80126 L338.463509,420.973673 L329.321281,405.138869 L321.772005,392.06314 C319.573557,388.255316 321.008466,383.321538 324.971372,381.033553 L350.756217,366.146666 C354.715059,363.861028 359.711858,365.087238 361.907803,368.890726 L369.457079,381.966455 L378.599307,397.80126 L378.599307,397.80126 Z" id="eraser" fill="#444444"></path>
                <path d="M482.316667,624.051801 L482.53709,624.171608 L483.679174,579.804928 L386.866353,412.120202 L366.822875,423.69231 L482.454528,623.972207 L482.316667,624.051801 L482.316667,624.051801 Z" id="pencilHalf" fill="#1D1D1D"></path>
                <path d="M358.531408,409.387466 L378.599307,397.80126 L369.457079,381.966455 L361.907803,368.890726 C359.711858,365.087238 354.715059,363.861028 350.756217,366.146666 L337.863795,373.59011 L358.531408,409.387466 L358.531408,409.387466 Z" id="eraserHalf" fill="#1D1D1D"></path>
            </g>
        </g>
    </g>
</svg>