<?xml version="1.0" encoding="UTF-8" standalone="no"?>
<svg width="717px" height="283px" viewBox="0 0 717 283" version="1.1" xmlns="http://www.w3.org/2000/svg" xmlns:xlink="http://www.w3.org/1999/xlink">
    <g id="pencil" stroke="none" stroke-width="1" fill="none" fill-rule="evenodd" transform="translate(236.000000, -3.000000)">
        <path d="M41.2525193,241.477342 L42.3946036,285.844022 L81.3883173,264.649756 L178.201139,96.9650299 L138.065341,73.7926161 L41.2525193,241.477342 L41.2525193,241.477342 Z M186.468184,82.6460871 L146.332386,59.4736733 L155.474615,43.638869 L163.023891,30.5631396 C165.222339,26.7553159 170.21257,25.5310947 174.175476,27.8190797 L199.960322,42.705967 C203.919163,44.9916051 205.355633,49.932066 203.159689,53.7355534 L195.610413,66.8112828 L186.468184,82.6460871 L186.468184,82.6460871 Z" id="Triangle-1" fill="#1377B0"></path>
        <path d="M78.2639217,278.350059 L101.436336,240.498429 L101.436336,46.8727859 L55.0915079,46.8727859 L55.0915079,240.498429 L78.2639217,278.350059 Z" id="Triangle-1" fill="#23AEF6" transform="translate(78.263922, 162.611422) rotate(-330.000000) translate(-78.263922, -162.611422) "></path>
        <path d="M76.5894504,283.896448 L76.7204389,284.110415 L99.8928527,246.258785 L99.8928527,52.6331422 L76.7486382,52.6331422 L76.7486382,283.896448 L76.5894504,283.896448 L76.5894504,283.896448 Z" id="Triangle-1-Copy-2" fill="#21A1E3" transform="translate(88.241152, 168.371779) rotate(-330.000000) translate(-88.241152, -168.371779) "></path>
        <path d="M177.906506,50.8288154 L131.561678,50.8288154 L131.561678,32.5443583 L131.561678,17.4458065 C131.561678,13.0489105 135.271235,9.49358816 139.847205,9.49358816 L169.62098,9.49358816 C174.192256,9.49358816 177.906506,13.0539176 177.906506,17.4458065 L177.906506,32.5443583 L177.906506,50.8288154 Z" id="Rectangle-1-Copy-2" fill="#23AEF6" transform="translate(154.734092, 30.161202) rotate(-330.000000) translate(-154.734092, -30.161202) "></path>
        <path d="M153.181835,56.6219189 L176.354249,56.6219189 L176.354249,38.3374618 L176.354249,23.23891 C176.354249,18.847021 172.639998,15.2866916 168.068722,15.2866916 L153.181835,15.2866916 L153.181835,56.6219189 L153.181835,56.6219189 Z" id="Rectangle-1-Copy-3" fill="#22A1E2" transform="translate(164.768042, 35.954305) rotate(-330.000000) translate(-164.768042, -35.954305) "></path>
    </g>
</svg>
